<svg xmlns="http://www.w3.org/2000/svg" width="26.248" height="24.288" viewBox="0 0 26.248 24.288"><defs><style>.a{fill:#fff;}</style></defs><g transform="translate(0 -19.114)"><g transform="translate(8.697 38.785)"><g transform="translate(0 0)"><path class="a" d="M171.964,402.828a2.308,2.308,0,1,0,2.308,2.308A2.311,2.311,0,0,0,171.964,402.828Zm0,3.328a1.02,1.02,0,1,1,1.02-1.02A1.021,1.021,0,0,1,171.964,406.156Z" transform="translate(-169.656 -402.828)"/></g></g><g transform="translate(16.794 38.785)"><g transform="translate(0 0)"><path class="a" d="M329.909,402.828a2.308,2.308,0,1,0,2.308,2.308A2.311,2.311,0,0,0,329.909,402.828Zm0,3.328a1.02,1.02,0,1,1,1.02-1.02A1.021,1.021,0,0,1,329.909,406.156Z" transform="translate(-327.601 -402.828)"/></g></g><g transform="translate(9.791 26.632)"><path class="a" d="M200.876,165.755H191.64a.644.644,0,0,0,0,1.289h9.236a.644.644,0,0,0,0-1.289Z" transform="translate(-190.996 -165.755)"/></g><g transform="translate(10.294 29.978)"><path class="a" d="M209.677,231.035h-8.23a.644.644,0,0,0,0,1.289h8.23a.644.644,0,0,0,0-1.289Z" transform="translate(-200.802 -231.035)"/></g><g transform="translate(0 19.114)"><g transform="translate(0 0)"><path class="a" d="M25.958,23.76a1.284,1.284,0,0,0-1-.475H4.884l-.405-1.968a1.291,1.291,0,0,0-.749-.922L.9,19.168A.644.644,0,0,0,.388,20.35l2.829,1.228L6.335,36.714A1.294,1.294,0,0,0,7.6,37.743h15.44a.644.644,0,1,0,0-1.289H7.6l-.379-1.841H23.156a1.294,1.294,0,0,0,1.262-1.029l1.8-8.75A1.284,1.284,0,0,0,25.958,23.76Zm-2.8,9.564H6.952l-1.8-8.75H24.958Z" transform="translate(0 -19.114)"/></g></g></g></svg>